<svg xmlns="http://www.w3.org/2000/svg" width="86" height="68" fill="none" viewBox="0 0 86 68">
    <path fill="#BFE2BF" fill-rule="evenodd" d="M80.686 23.274c-.938 1.18-2.936-.175-2-1.352l3.5-4.4c.936-1.18 2.935.176 1.997 1.353-1.167 1.466-2.332 2.933-3.498 4.4z" clip-rule="evenodd"/>
    <path fill-rule="evenodd" stroke="#333" stroke-width=".75" d="M80.686 23.274c-.938 1.18-2.936-.175-2-1.352l3.5-4.4c.936-1.18 2.935.176 1.997 1.353-1.167 1.466-2.332 2.933-3.498 4.4z" clip-rule="evenodd"/>
    <path fill="#CDEEFA" fill-rule="evenodd" d="M16.863 3.208C16.134 1.89 18.151.565 18.88 1.882l2.72 4.92c.73 1.317-1.289 2.642-2.015 1.325-.908-1.64-1.814-3.278-2.72-4.92z" clip-rule="evenodd"/>
    <path fill-rule="evenodd" stroke="#333" stroke-width=".75" d="M16.863 3.208C16.134 1.89 18.151.565 18.88 1.882l2.72 4.92c.73 1.317-1.289 2.642-2.015 1.325-.908-1.64-1.814-3.278-2.72-4.92z" clip-rule="evenodd"/>
    <path fill="#BFE2BF" fill-rule="evenodd" d="M3.802 23.492c1.054.272 1.668 1.304 1.373 2.305-.297 1-1.392 1.591-2.446 1.318-1.055-.272-1.669-1.305-1.372-2.305.295-1 1.389-1.589 2.445-1.318z" clip-rule="evenodd"/>
    <path fill-rule="evenodd" stroke="#333" stroke-width=".75" d="M3.802 23.492c1.054.272 1.668 1.304 1.373 2.305-.297 1-1.392 1.591-2.446 1.318-1.055-.272-1.669-1.305-1.372-2.305.295-1 1.389-1.589 2.445-1.318z" clip-rule="evenodd"/>
    <path fill="#E6B1D0" fill-rule="evenodd" d="M55.708 4.968c1.054.272 1.668 1.304 1.373 2.305-.297 1-1.392 1.59-2.446 1.318-1.055-.272-1.67-1.305-1.372-2.305.295-1 1.389-1.59 2.445-1.318z" clip-rule="evenodd"/>
    <path fill-rule="evenodd" stroke="#333" stroke-width=".75" d="M55.708 4.968c1.054.272 1.668 1.304 1.373 2.305-.297 1-1.392 1.59-2.446 1.318-1.055-.272-1.67-1.305-1.372-2.305.295-1 1.389-1.59 2.445-1.318z" clip-rule="evenodd"/>
    <mask id="3ou4qi0nha" width="2" height="2" x="45" y="0" maskUnits="userSpaceOnUse">
        <path fill="#fff" fill-rule="evenodd" d="M45.077 0h1.706v1.907h-1.706V0z" clip-rule="evenodd"/>
    </mask>
    <g mask="url(#3ou4qi0nha)">
        <path fill="#111" fill-rule="evenodd" d="M45.078 2.644c-.017.379.232.764.708.756.653-.01.965-.932.388-1.268-.527-.31-1.074-.05-1.096.512z" clip-rule="evenodd"/>
    </g>
    <path fill="#111" fill-rule="evenodd" d="M83.216 30.887c-.022.54.332 1.091 1.011 1.08.933-.015 1.38-1.331.554-1.81-.753-.444-1.532-.073-1.565.73zM3.401 36.231c-.023.54.332 1.09 1.012 1.08.933-.016 1.379-1.331.554-1.812-.753-.441-1.534-.071-1.566.732z" clip-rule="evenodd"/>
    <path fill="#fff" fill-rule="evenodd" d="M67.587 31.095H18.31V66.08c0 .409.33.74.739.74h47.798c.408 0 .739-.331.739-.74V31.095z" clip-rule="evenodd"/>
    <path fill-rule="evenodd" stroke="#333" stroke-width=".75" d="M67.587 31.095H18.31V66.08c0 .409.33.74.739.74h47.798c.408 0 .739-.331.739-.74V31.095z" clip-rule="evenodd"/>
    <path fill="#FBB03F" fill-rule="evenodd" d="M45.615 26.592h11.413c2.058 0 3.733-1.674 3.733-3.731 0-2.058-1.675-3.733-3.733-3.733-6.22 0-9.788 4.586-11.413 7.464zm11.413 3.38H40.552l.803-2.258c.175-.488 4.398-11.967 15.673-11.967 3.922 0 7.113 3.192 7.113 7.114 0 3.92-3.19 7.11-7.113 7.11z" clip-rule="evenodd"/>
    <path fill="#333" d="M45.615 26.592l-.326-.185-.316.56h.642v-.375zm-5.063 3.38l-.353-.126-.178.5h.531v-.374zm.803-2.258l-.353-.127.353.127zm4.26-.747h11.413v-.75H45.615v.75zm11.413 0c2.265 0 4.108-1.842 4.108-4.106h-.75c0 1.85-1.507 3.356-3.358 3.356v.75zm4.108-4.106c0-2.265-1.843-4.108-4.108-4.108v.75c1.851 0 3.358 1.507 3.358 3.358h.75zm-4.108-4.108c-6.431 0-10.096 4.743-11.74 7.654l.654.37c1.606-2.846 5.075-7.274 11.086-7.274v-.75zm0 10.844H40.552v.75h16.476v-.75zm-16.122.5l.803-2.258-.707-.251-.803 2.258.707.251zm.802-2.257c.08-.225 1.162-3.169 3.607-6.05 2.441-2.877 6.22-5.668 11.713-5.668v-.75c-5.781 0-9.752 2.948-12.285 5.932-2.528 2.98-3.646 6.02-3.74 6.283l.705.253zm15.32-11.718c3.715 0 6.738 3.024 6.738 6.739h.75c0-4.13-3.359-7.49-7.488-7.49v.75zm6.738 6.739c0 3.713-3.023 6.736-6.738 6.736v.75c4.13 0 7.488-3.358 7.488-7.486h-.75z"/>
    <path fill="#FBB03F" fill-rule="evenodd" d="M28.868 19.128c-2.058 0-3.732 1.675-3.732 3.732 0 2.058 1.674 3.732 3.732 3.732h11.413c-1.625-2.877-5.192-7.464-11.413-7.464zm16.477 10.844H28.868c-3.92 0-7.112-3.19-7.112-7.112 0-3.92 3.191-7.113 7.112-7.113 11.275 0 15.497 11.48 15.672 11.967l.805 2.258z" clip-rule="evenodd"/>
    <path fill="#333" d="M40.281 26.592v.375h.642l-.315-.56-.327.185zm5.064 3.38v.375h.532l-.179-.5-.353.125zm-.805-2.258l.353-.126-.353.126zm-15.672-8.96c-2.265 0-4.107 1.842-4.107 4.106h.75c0-1.85 1.506-3.357 3.357-3.357v-.75zm-4.107 4.106c0 2.265 1.842 4.107 4.107 4.107v-.75c-1.85 0-3.357-1.506-3.357-3.357h-.75zm4.107 4.107h11.413v-.75H28.868v.75zm11.74-.56c-1.644-2.91-5.309-7.654-11.74-7.654v.75c6.01 0 9.48 4.43 11.087 7.274l.653-.37zm4.737 3.19H28.868v.75h16.477v-.75zm-16.477 0c-3.714 0-6.737-3.022-6.737-6.737h-.75c0 4.13 3.359 7.487 7.487 7.487v-.75zm-6.737-6.737c0-3.714 3.023-6.738 6.737-6.738v-.75c-4.128 0-7.487 3.36-7.487 7.488h.75zm6.737-6.738c5.494 0 9.272 2.792 11.713 5.668 2.445 2.882 3.525 5.826 3.606 6.05l.706-.253c-.094-.263-1.212-3.302-3.74-6.282-2.533-2.985-6.503-5.933-12.285-5.933v.75zM44.187 27.84l.805 2.258.706-.252-.805-2.258-.706.252z"/>
    <path fill="#FBB03F" fill-rule="evenodd" d="M44.448 28.046h-3c-.818 0-1.48-.663-1.48-1.481v-1.268c0-.818.662-1.482 1.48-1.482h3c.818 0 1.482.664 1.482 1.482v1.268c0 .818-.664 1.48-1.482 1.48z" clip-rule="evenodd"/>
    <path fill-rule="evenodd" stroke="#333" stroke-width=".75" d="M44.448 28.046h-3c-.818 0-1.48-.663-1.48-1.481v-1.268c0-.818.662-1.482 1.48-1.482h3c.818 0 1.482.664 1.482 1.482v1.268c0 .818-.664 1.48-1.482 1.48z" clip-rule="evenodd"/>
    <path fill="#fff" fill-rule="evenodd" d="M16.832 41.41h52.232V27.12H16.832v14.29z" clip-rule="evenodd"/>
    <path fill-rule="evenodd" stroke="#333" stroke-width=".75" d="M16.832 41.41h52.232V27.12H16.832v14.29z" clip-rule="evenodd"/>
    <path fill="#fff" fill-rule="evenodd" d="M69.064 42.148H16.833c-.41 0-.74-.33-.74-.739V27.12c0-.409.33-.74.74-.74h52.231c.41 0 .74.331.74.74v14.29c0 .408-.33.74-.74.74z" clip-rule="evenodd"/>
    <path fill-rule="evenodd" stroke="#333" stroke-width=".75" d="M69.064 42.148H16.833c-.41 0-.74-.33-.74-.739V27.12c0-.409.33-.74.74-.74h52.231c.41 0 .74.331.74.74v14.29c0 .408-.33.74-.74.74z" clip-rule="evenodd"/>
    <path fill="#FBB03F" fill-rule="evenodd" d="M36.248 66.819h13.401V26.443H36.248v40.376z" clip-rule="evenodd"/>
    <path fill-rule="evenodd" stroke="#333" stroke-width=".75" d="M36.248 66.819h13.401V26.443H36.248v40.376z" clip-rule="evenodd"/>
</svg>
