<svg xmlns="http://www.w3.org/2000/svg" width="32" height="32" fill="none" viewBox="0 0 32 32">
    <path fill="#fff" stroke="#000" stroke-linecap="round" stroke-miterlimit="10" stroke-width=".8" d="M27.296 18.037c0 6.484-5.023 11.744-11.213 11.744h-.185c-6.182-.008-11.204-5.26-11.204-11.744v-4.196C4.694 7.305 9.758 2 15.999 2c6.24 0 11.305 5.305 11.305 11.84v4.197h-.008z"/>
    <path fill="#fff" d="M1.783 15.643c.7-1.147 2.172-.98 2.82-.754l.243 3.696c.154 1.159.088 3.311-1.41 2.65-1.872-.827-2.528-4.158-1.653-5.592zM30.32 15.643c-.7-1.147-2.173-.98-2.821-.754l-.242 3.696c-.155 1.159-.088 3.311 1.41 2.65 1.871-.827 2.527-4.158 1.652-5.592z"/>
    <path stroke="#000" stroke-linecap="round" stroke-miterlimit="10" stroke-width=".8" d="M11.136 17.93v-1.6M20.862 17.93v-1.6"/>
    <path stroke="#000" stroke-linecap="round" stroke-width=".8" d="M22.591 4.43c-1.03 4.484-5.818 8.545-14.301 7.938"/>
    <path stroke="#000" stroke-linecap="round" stroke-miterlimit="10" stroke-width=".8" d="M27.296 18.037c0 6.484-5.023 11.744-11.213 11.744h-.185c-6.182-.008-11.204-5.26-11.204-11.744v-4.196C4.694 7.305 9.758 2 15.999 2c6.24 0 11.305 5.305 11.305 11.84v4.197h-.008z"/>
    <path stroke="#000" stroke-linecap="round" stroke-width=".8" d="M4.694 14.847c-.771-.3-2.467-.463-3.083 1.284-.771 2.184 1.155 5.892 3.39 5.01M27.305 14.847c.771-.3 2.467-.463 3.084 1.284.77 2.184-1.155 5.892-3.39 5.01"/>
    <path fill="#FF8F4C" stroke="#000" stroke-linecap="round" stroke-linejoin="round" stroke-width=".8" d="M19.918 20.5h-7.965c.15 1.241 1.194 3.725 4.175 3.725 2.98 0 3.768-2.484 3.79-3.726z"/>
</svg>
