<svg xmlns="http://www.w3.org/2000/svg" width="32" height="32" fill="none" viewBox="0 0 32 32">
    <path fill="#fff" stroke="#000" stroke-width=".8" d="M16.09 5.843h0c1.505-1.614 3.552-2.918 5.78-2.918 2.19 0 4.244.915 5.782 2.565 3.164 3.392 3.164 8.9 0 12.293l-.007.007-.007.007-11.362 11.05-.28.272-.278-.271-11.315-11-.007-.007-.007-.007c-3.21-3.442-3.213-8.95-.047-12.344l11.748.353zm0 0l-.093.1m.093-.1l-.093.1m0 0l-.093-.1h0c-1.506-1.614-3.553-2.918-5.781-2.918-2.19 0-4.243.915-5.781 2.565l11.655.453z"/>
    <mask id="0klbuzwofa" width="21" height="16" x="5.667" y="14.159" fill="#000" maskUnits="userSpaceOnUse">
        <path fill="#fff" d="M5.667 14.159H26.667V30.159H5.667z"/>
        <path fill-rule="evenodd" d="M24 20.824h-5.467l-1.639-3.665-2.048 5.701-2.048-4.072-1.639 1.629H7.667l8.378 8.144L24 20.824z" clip-rule="evenodd"/>
    </mask>
    <path fill="#FF8F4C" fill-rule="evenodd" d="M24 20.824h-5.467l-1.639-3.665-2.048 5.701-2.048-4.072-1.639 1.629H7.667l8.378 8.144L24 20.824z" clip-rule="evenodd"/>
    <path fill="#000" d="M24 20.824l.558.573 1.413-1.373H24v.8zm-5.467 0l-.73.326.212.474h.518v-.8zm-1.639-3.665l.73-.327-.81-1.814-.672 1.87.753.27zm-2.048 5.701l-.714.36.837 1.665.63-1.754-.753-.27zm-2.048-4.072l.714-.36-.495-.986-.783.778.564.568zm-1.639 1.629v.8h.33l.234-.233-.564-.567zm-3.492 0v-.8h-1.97L7.11 20.99l.557-.573zm8.378 8.144l-.558.574.558.542.558-.542-.558-.574zM24 20.024h-5.467v1.6H24v-1.6zm-4.736.473l-1.64-3.665-1.46.653 1.639 3.665 1.46-.653zm-3.122-3.609l-2.049 5.702 1.506.54 2.048-5.7-1.505-.542zm-.581 5.613l-2.049-4.073-1.429.72 2.049 4.072 1.429-.72zm-3.327-4.28l-1.639 1.628 1.128 1.135 1.639-1.629-1.128-1.135zm-1.075 1.396H7.667v1.6h3.492v-1.6zM7.11 20.99l8.378 8.145 1.116-1.147-8.378-8.145L7.11 20.99zm9.494 8.145l7.955-7.738-1.115-1.147-7.956 7.738 1.116 1.147z" mask="url(#0klbuzwofa)"/>
</svg>
