<svg xmlns="http://www.w3.org/2000/svg" width="32" height="32" fill="none" viewBox="0 0 32 32">
    <path fill="#fff" stroke="#000" stroke-linecap="round" stroke-linejoin="round" stroke-width=".8" d="M16.148 1.566c-.095-.038-.2-.038-.295 0L4.29 6.168c-.153.061-.253.208-.253.372v9.217c0 3.475 1.74 6.751 4.71 8.924h0l7.018 5.131c.14.103.331.103.472 0l7.016-5.131h0c2.97-2.173 4.71-5.45 4.71-8.924V6.54c0-.164-.1-.311-.253-.372L16.148 1.566z"/>
    <path fill="#FF8F4C" stroke="#000" stroke-linecap="round" stroke-linejoin="round" stroke-width=".8" d="M17.6 13c0 .22.179.4.4.4h3.6v3.2H18c-.221 0-.4.18-.4.4v3.6h-3.2V17c0-.22-.179-.4-.4-.4h-3.6v-3.2H14c.221 0 .4-.18.4-.4V9.4h3.2V13z"/>
</svg>
