<svg xmlns="http://www.w3.org/2000/svg" width="32" height="32" fill="none" viewBox="0 0 32 32">
    <path fill="#fff" d="M26.562 11.875c2.2 1 3.458 4.292 3.813 5.812.437 2 0 3.75-.438 6-.437 2.25-3.375 4.5-4.125 5.125S19.188 31 11.376 29.75c-6.25-1-9.188-5.958-9.875-8.313-.125-.625-.3-2.062 0-2.812.375-.938.5-2.125 3.125-2.188.3-1.95 3-4.229 4.312-5.125v-2.75l4.688 1.813c1.041.062 3.687.15 5.937 0 2.813-.188 4.125.25 7 1.5z"/>
    <path stroke="#000" stroke-linecap="round" stroke-miterlimit="10" stroke-width=".846" d="M4.731 16.456c.804-2.1 2.27-3.834 4.115-4.906"/>
    <path stroke="#000" stroke-linecap="round" stroke-miterlimit="10" stroke-width=".8" d="M8.69 18.694V17.51M29.24 14.616l1.337-1.337M4.69 16.541h-.94c-1.27 0-2.299 1.03-2.299 2.299v2.183s.514 4.822 7.087 7.86c0 0 2.82 1.158 4.679 1.158h8.177M8.85 11.555l-.004-3.057 4.773 1.868h7.78c5.071 0 9.178 4.406 9.178 9.84 0 2.274-.72 4.37-1.93 6.037-.763.97-3.28 3.05-7.249 3.8"/>
    <path fill="#FF8F4C" fill-rule="evenodd" d="M25.102 7.573c0-3.313-2.687-6-6-6-3.316 0-6 2.687-6 6 0 1.753.751 3.33 1.95 4.427h8.099c1.199-1.097 1.95-2.674 1.95-4.427z" clip-rule="evenodd"/>
    <path fill="#000" d="M15.052 12l-.27.295c.073.068.17.105.27.105V12zm8.099 0v.4c.1 0 .196-.037.27-.105l-.27-.295zm-4.05-10.027c3.093 0 5.6 2.508 5.6 5.6h.8c0-3.534-2.865-6.4-6.4-6.4v.8zm-5.6 5.6c0-3.093 2.506-5.6 5.6-5.6v-.8c-3.536 0-6.4 2.866-6.4 6.4h.8zm1.82 4.132c-1.118-1.024-1.82-2.496-1.82-4.132h-.8c0 1.87.803 3.552 2.08 4.722l.54-.59zm-.27.695h8.1v-.8h-8.1v.8zm9.65-4.827c0 1.636-.7 3.107-1.82 4.132l.54.59c1.278-1.17 2.08-2.853 2.08-4.722h-.8z"/>
</svg>
