<svg xmlns="http://www.w3.org/2000/svg" width="32" height="32" fill="none" viewBox="0 0 32 32">
    <circle cx="24.054" cy="8.005" r="6.5" fill="#fff" stroke="#000" stroke-linecap="round" stroke-miterlimit="10" stroke-width=".8"/>
    <path stroke="#000" stroke-linecap="round" stroke-miterlimit="10" stroke-width=".8" d="M22.554 6.594c0-.844.672-1.527 1.5-1.527s1.5.685 1.5 1.527c0 .845-.672 1.527-1.5 1.527v1.321M24.054 11.38v-.61"/>
    <path fill="#fff" d="M23.671 30.096c-4.003.167-9.784-2.8-14.758-7.95-4.975-5.152-7.738-11.033-7.431-15.028.075-.979.648-1.821 1.355-2.503l.438-.423.349-.337C4.684 2.83 6.375 2.86 7.4 3.92l3.99 4.133c1.211 1.253 1.176 3.251-.077 4.462l-1.514 1.461 7.308 7.567 1.513-1.461c1.254-1.21 3.252-1.176 4.462.078l3.991 4.133c1.025 1.06.995 2.75-.066 3.775l-.349.338-.438.422c-.706.682-1.567 1.226-2.549 1.267z"/>
    <path fill="#FF8F4C" d="M19.054 19.892c1.42-1.122 2.96-.468 3.552 0l4.884 5.142c.71 1.122-.296 2.649-.888 3.272l-7.548-8.414z"/>
    <path stroke="#000" stroke-linecap="round" stroke-linejoin="round" stroke-miterlimit="10" stroke-width=".8" d="M23.672 30.096c-4.004.167-9.784-2.8-14.76-7.95-4.974-5.152-7.737-11.033-7.43-15.028.075-.979.649-1.821 1.355-2.503l.438-.423.349-.337C4.684 2.83 6.375 2.86 7.4 3.92l3.99 4.133c1.212 1.253 1.177 3.251-.077 4.462l-1.514 1.461 7.308 7.567 1.513-1.461c1.254-1.21 3.252-1.176 4.462.078l3.991 4.133c1.025 1.06.995 2.75-.065 3.775l-.35.338-.437.422c-.707.682-1.568 1.226-2.55 1.267zM19.054 20.281l7.465 8.157"/>
</svg>
