<svg xmlns="http://www.w3.org/2000/svg" width="68" height="50" fill="none" viewBox="0 0 68 50">
    <path fill="#FF7373" stroke="#000" stroke-width=".75" d="M11.375 33.375h14.25v16.25h-14.25v-16.25z"/>
    <path fill="#fff" stroke="#000" stroke-width=".75" d="M25.375 23.375h14.25v26.25h-14.25v-26.25zM53.375 14.375h14.25v35.25h-14.25v-35.25z"/>
    <path fill="#6ACAF0" stroke="#000" stroke-width=".75" d="M39.375.375h14.25v49.25h-14.25V.375z"/>
    <path fill="#FFD08A" stroke="#000" stroke-width=".75" d="M13.655 21.29l-.124.033-.078.1L11 24.57l-2.453-3.147-.079-.1-.123-.032C3.76 20.11.375 15.95.375 11 .375 5.132 5.132.375 11 .375S21.625 5.132 21.625 11c0 4.95-3.387 9.112-7.97 10.29z"/>
    <path fill="#FF7373" d="M11 9c-1.105 0-2 .895-2 2h4c0-1.105-.895-2-2-2z"/>
    <path fill="#000" d="M6.207 7.512L8.302 6.43l.36.698L6.568 8.21l-.36-.698zM15.783 7.512L13.688 6.43l-.36.698 2.094 1.082.36-.698z"/>
</svg>
