<svg xmlns="http://www.w3.org/2000/svg" width="24" height="24" fill="none" viewBox="0 0 24 24">
    <path fill="#000" d="M12 23c6.075 0 11-4.925 11-11S18.075 1 12 1 1 5.925 1 12v10.2c0 .442.358.8.8.8H12z"/>
    <path fill="#fff" d="M8 15H6.54v-2.403H4.513V15H3.187V9.317h1.326v2.376H6.54V9.317H8V15zM12.381 9.317v1.014H10.05v1.326h1.786v.975H10.05v1.354h2.332V15H8.723V9.317h3.658zM14.373 13.947h2.107V15h-3.425V9.317h1.319v4.63zM18.34 13.1V15h-1.318V9.317h2.005c.4 0 .743.048 1.03.145.288.093.524.223.709.39.187.166.325.362.413.589.089.226.133.47.133.733 0 .283-.046.543-.137.78-.09.236-.23.44-.417.608-.187.17-.425.302-.714.398-.286.094-.625.14-1.018.14h-.686zm0-.994h.686c.344 0 .59-.082.741-.246.151-.164.227-.392.227-.686 0-.13-.02-.248-.059-.355-.039-.107-.099-.198-.18-.273-.077-.078-.177-.138-.3-.18-.12-.041-.262-.062-.428-.062h-.687v1.802z"/>
</svg>
