<svg xmlns="http://www.w3.org/2000/svg" width="24" height="24" fill="none" viewBox="0 0 24 24">
    <path fill="#000" d="M3 2.5h13c.276 0 .5.224.5.5v7H18V3c0-1.105-.895-2-2-2H3c-1.105 0-2 .895-2 2v18c0 1.105.895 2 2 2h13c1.105 0 2-.895 2-2v-3h-1.5v3c0 .276-.224.5-.5.5H3c-.276 0-.5-.224-.5-.5V3c0-.276.224-.5.5-.5z"/>
    <path stroke="#000" stroke-linecap="round" stroke-linejoin="round" stroke-width="1.5" d="M22 19.291l-1-1"/>
    <path stroke="#000" stroke-width="1.5" d="M22.25 14.291c0 2.347-1.903 4.25-4.25 4.25s-4.25-1.903-4.25-4.25 1.903-4.25 4.25-4.25 4.25 1.903 4.25 4.25z"/>
    <path stroke="#000" stroke-linecap="round" stroke-linejoin="round" stroke-width="1.5" d="M5.5 8H10M5.5 12H10"/>
</svg>
