<svg xmlns="http://www.w3.org/2000/svg" width="272" height="160" fill="none" viewBox="0 0 272 160">
    <rect width="52.292" height="52.292" x="93.489" y="106.86" fill="#6269BE" stroke="#000" stroke-width=".8" rx="5.6"/>
    <path stroke="#000" stroke-linecap="round" stroke-linejoin="round" stroke-miterlimit="10" stroke-width=".75" d="M119.634 117.181v3.079M109.604 120.877l1.939 2.361M104.266 130.271l2.986.538M106.114 140.946l2.624-1.54M114.297 147.913l1.034-2.887M124.973 147.913l-1.047-2.887M133.155 140.946l-2.636-1.54M135.004 130.271l-2.986.538M129.664 120.877l-1.951 2.361"/>
    <path fill="#B4B9F1" stroke="#000" stroke-linecap="round" stroke-linejoin="round" stroke-miterlimit="10" stroke-width=".75" d="M119.635 145.604c6.839 0 12.383-5.63 12.383-12.575 0-6.945-5.544-12.575-12.383-12.575-6.839 0-12.383 5.63-12.383 12.575 0 6.945 5.544 12.575 12.383 12.575z"/>
    <path stroke="#000" stroke-linecap="round" stroke-linejoin="round" stroke-miterlimit="10" stroke-width=".75" d="M124.405 135.595h-9.553M118.238 128.813l-3.386-1.397M121.032 128.813l3.385-1.397"/>
    <circle cx="115.497" cy="130.778" r=".985" fill="#000"/>
    <circle cx="123.773" cy="130.775" r=".985" fill="#000"/>
    <rect width="52.292" height="52.292" x="218.676" y="106.86" fill="#6269BE" stroke="#000" stroke-width=".8" rx="5.6"/>
    <path fill="#B4B9F1" fill-rule="evenodd" d="M257.522 142.379c0 3.087-4.57 9.486-11.907 1.318v-.397c-6.039 9.608-11.898 2.165-11.898-.921 0-.033.002-.068.004-.103.002-.035.004-.07.004-.102-2.118-.797-4.204-2.833-4.204-5.223 0-1.388.509-2.66 1.355-3.637-.739-.945-1.174-2.127-1.174-3.425 0-2.8 2.069-5.115 4.754-5.518v-.065c0-3.088 2.505-5.584 5.584-5.584 3.014 0 5.464 2.386 5.579 5.365.115-2.979 2.566-5.365 5.58-5.365 3.079 0 5.584 2.496 5.584 5.583v.066c2.685.402 4.754 2.718 4.754 5.518 0 1.298-.435 2.48-1.174 3.424.846.978 1.355 2.25 1.355 3.638 0 2.39-2.086 4.426-4.205 5.222 0 .033.003.068.005.103.002.035.004.07.004.103z" clip-rule="evenodd"/>
    <path stroke="#000" stroke-linecap="round" stroke-miterlimit="10" stroke-width=".8" d="M245.615 124.142v17.506M251.938 147.963c3.088 0 5.584-2.497 5.584-5.584 0-.066-.008-.14-.008-.206 2.118-.796 4.204-2.832 4.204-5.222 0-1.388-.509-2.66-1.355-3.638.739-.944 1.174-2.126 1.174-3.424 0-2.8-2.069-5.116-4.754-5.518v-.066c0-3.087-2.505-5.583-5.584-5.583-3.087 0-5.584 2.504-5.584 5.583"/>
    <path stroke="#000" stroke-linecap="round" stroke-miterlimit="10" stroke-width=".8" d="M239.301 147.963c-3.088 0-5.584-2.497-5.584-5.584 0-.066.008-.14.008-.206-2.118-.796-4.204-2.832-4.204-5.222 0-1.388.509-2.66 1.355-3.638-.739-.944-1.174-2.126-1.174-3.424 0-2.8 2.069-5.116 4.754-5.518v-.066c0-3.087 2.505-5.583 5.584-5.583 3.087 0 5.584 2.504 5.584 5.583M251.93 147.963c-1.076 0-2.036-.476-2.685-1.223M245.616 141.647c0 3.49-2.825 6.315-6.315 6.315M230.876 133.313s.92-.871 2.677-1.552M260.404 133.313s-.92-.871-2.677-1.552M239.563 136.056c1.75-1.749 1.75-4.582 0-6.339M251.897 136.056c-1.749-1.749-1.749-4.582 0-6.339"/>
    <rect width="90.483" height="90.483" x="137.482" y="37.754" fill="#fff" stroke="#000" stroke-width=".8" rx="9.916"/>
    <path fill="#FF7373" d="M170.581 66.801c1.561-1.08 1.858-6.406 1.483-8.933h9.892v3.96h14.5v15.558h7.437v26.574c.6 4.564-2.202 6.006-3.679 6.156h-5.855c-17.836.72-22.295-13.163-21.77-24.322-8.332 0-8.107-6.256-8.332-9.91h-9.609v-8.107c4.879.125 14.372.105 15.933-.976z"/>
    <path stroke="#000" stroke-linecap="round" stroke-miterlimit="10" stroke-width=".8" d="M181.932 58.024v15.188M196 62.146v21.327M171.756 58.024v5.977M171.755 64.351c0 1.848-1.497 3.346-3.345 3.346h-13.942M203.993 78.516v22.06M203.993 100.58c0 6.789.616 9.392-4.577 9.392M198.548 109.972c-10.065 0-26.191-.378-26.191-24.175 0 0-8.23 1.344-8.23-9.715h-9.659M198.547 109.972h1.316M181.932 73.211c0 2.394 1.932 4.326 4.325 4.326M196 83.471c0 3.361-2.713 6.074-6.074 6.074"/>
    <path fill="#FFD08A" stroke="#000" stroke-width=".8" d="M201.953 44.362l13.774 13.264c.391.377 1.012.373 1.398-.01l34.657-34.403c.395-.393 1.035-.386 1.422.014l4.211 4.343c.38.392.376 1.017-.011 1.403l-40.266 40.266c-.39.39-1.023.39-1.414 0l-19.311-19.311c-.39-.39-.39-1.024 0-1.414l4.139-4.14c.386-.385 1.008-.39 1.401-.012z"/>
    <path stroke="#000" stroke-linecap="round" stroke-width=".8" d="M239.572 64h31.5M241.072 56.5l15-7.5M268.26 42.917l-7.5 3.75M220.5 16L218 30.5M227 33l17-29"/>
    <rect width="52.292" height="52.292" x="30.4" y="106.86" fill="#6269BE" stroke="#000" stroke-width=".8" rx="5.6"/>
    <path fill="#B4B9F1" d="M67.723 129.397v7.217c0 .258-.213.465-.471.465H60.62v6.633c0 .257-.208.471-.466.471h-7.217c-.257 0-.465-.214-.465-.471v-6.633H45.84c-.258 0-.471-.207-.471-.465v-7.217c0-.257.213-.465.471-.465h6.632V122.3c0-.258.208-.471.465-.471h7.217c.258 0 .465.213.465.471v6.632h6.633c.258 0 .471.214.471.465z"/>
    <path stroke="#000" stroke-linecap="round" stroke-linejoin="round" stroke-miterlimit="10" stroke-width=".8" d="M67.252 128.932H60.62V122.3c0-.258-.208-.471-.466-.471h-7.217c-.257 0-.465.213-.465.471v6.632H45.84c-.258 0-.471.208-.471.465v7.217c0 .258.213.465.471.465h6.632v6.633c0 .257.208.471.465.471h7.217c.258 0 .465-.214.465-.471v-6.633h6.633c.258 0 .471-.207.471-.465v-7.217c0-.251-.213-.465-.471-.465z"/>
</svg>
